# xmcd CD database file
#
# Track frame offsets:
#	150
#	13767
#	23645
#	35244
#	44699
#	62928
#	79725
#	100317
#	112871
#	120930
#	130170
#	145983
#	164234
#	177430
#	189446
#	199374
#	215501
#	223360
#	232097
#	245428
#	257399
#	288159
#	301468
#	314713
#	328814
#	339753
#
# Disc length: 4689 seconds
#
# Revision: 0
# Processed by: cddbd v1.5.2PL0 Copyright (c) Steve Scherf et al.
# Submitted via: CDex 1.51
#
DISCID=92124f1a
DTITLE=Chet Baker and Christopher Mason and Various - Chet Baker: Silent Night (1-12) Various: A Traditional Jazz Christmas (13-26)
DYEAR=1900
DGENRE=Jazz
TTITLE0=01-Silent Night, Pt 1
TTITLE1=02-The First Noel
TTITLE2=03-We Three Kings
TTITLE3=04-Hark, The Herald Angels Sing
TTITLE4=05-Nobody Knows The Trouble I Have Seen
TTITLE5=06-Amazing Grace
TTITLE6=07-Come All Ye Faithful
TTITLE7=08-Joy To The World
TTITLE8=09-Amen
TTITLE9=10-It Came Upon A Midnight Clear
TTITLE10=11-Swing Low, Sweet Chariot
TTITLE11=12-Silent Night, Pt. 2
TTITLE12=Ramsey Lewis - Christmas Blues 1961
TTITLE13=Ahmad Jamal - Snowfall 1961
TTITLE14=Gene Ammons - Swingin' For Christmas 1948
TTITLE15=Kenny Burrell - Little Drummer Boy 1966
TTITLE16=Frank Sinatra - Santa Claus Is Coming To Town
TTITLE17=Peggy Lee - Winter Wonderland
TTITLE18=Ella Fitzgerald - Rudolph, The Red
TTITLE19=Les Brown - Let It Snow, Let It Snow, Let
TTITLE20=Jimmy Mcgriff - Santa Claus Is Comin' To Town;
TTITLE21=Lionel Hampton - Swingle Jingle 1964
TTITLE22=Louis Armstrong - Christmas In New Orleans 1955
TTITLE23=Mel Torme - The Christmas Song 1954
TTITLE24=Ramsey Lewis - Twelve Days Of Christmas 1966
TTITLE25=Louis Armstrong and Friends - White Christmas
EXTD=
EXTT0=
EXTT1=
EXTT2=
EXTT3=
EXTT4=
EXTT5=
EXTT6=
EXTT7=
EXTT8=
EXTT9=
EXTT10=
EXTT11=
EXTT12=
EXTT13=
EXTT14=
EXTT15=
EXTT16=
EXTT17=
EXTT18=
EXTT19=
EXTT20=
EXTT21=
EXTT22=
EXTT23=
EXTT24=
EXTT25=
PLAYORDER=
